<?xml version="1.0" standalone="no"?>
<!DOCTYPE svg PUBLIC "-//W3C//DTD SVG 20010904//EN"
 "http://www.w3.org/TR/2001/REC-SVG-20010904/DTD/svg10.dtd">
<svg version="1.0" xmlns="http://www.w3.org/2000/svg"
 width="26.000000pt" height="26.000000pt" viewBox="0 0 26.000000 26.000000"
 preserveAspectRatio="xMidYMid meet">
<metadata>
Created by potrace 1.16, written by Peter Selinger 2001-2019
</metadata>
<g transform="translate(0.000000,26.000000) scale(0.100000,-0.100000)"
fill="#000000" stroke="none">
<path d="M37 230 c-15 -12 -29 -35 -32 -53 -12 -65 33 -122 71 -91 14 11 15
17 7 20 -18 8 -16 24 2 24 20 0 19 10 -2 25 -15 11 -16 16 -4 38 12 22 16 24
27 12 18 -18 18 -25 -1 -25 -8 0 -15 -4 -15 -10 0 -5 7 -10 15 -10 18 0 20
-31 3 -48 -8 -8 -4 -14 17 -24 25 -11 29 -10 46 11 67 83 -50 197 -134 131z"/>
</g>
</svg>
