<?xml version="1.0" standalone="no"?>
<!DOCTYPE svg PUBLIC "-//W3C//DTD SVG 20010904//EN"
 "http://www.w3.org/TR/2001/REC-SVG-20010904/DTD/svg10.dtd">
<svg version="1.0" xmlns="http://www.w3.org/2000/svg"
 width="40.000000pt" height="46.000000pt" viewBox="0 0 40.000000 46.000000"
 preserveAspectRatio="xMidYMid meet">
<metadata>
Created by potrace 1.16, written by Peter Selinger 2001-2019
</metadata>
<g transform="translate(0.000000,46.000000) scale(0.100000,-0.100000)"
fill="#000000" stroke="none">
<path d="M35 450 c-3 -5 -4 -19 0 -29 4 -13 0 -23 -10 -29 -21 -11 -26 -122
-7 -145 7 -9 14 -47 15 -91 2 -62 5 -76 17 -73 8 1 15 14 16 27 0 14 2 45 4
70 2 43 3 42 16 -30 7 -41 13 -76 13 -77 1 -2 6 -3 11 -3 6 0 10 11 10 25 0
27 0 27 125 5 42 -7 80 4 88 24 3 8 -26 10 -103 8 l-107 -3 -7 32 c-10 51 -7
144 5 156 16 16 -7 80 -31 86 -20 5 -30 -16 -30 -65 0 -15 -5 -30 -10 -33 -6
-4 -10 13 -10 43 0 36 4 52 16 56 9 3 14 15 12 28 -3 24 -23 35 -33 18z"/>
</g>
</svg>
